# xmcd CD database file
#
# Track frame offsets:
#	150
#	13824
#	28243
#	44289
#	59701
#	73789
#	86647
#	98479
#	115237
#	128812
#	148403
#	163611
#	178748
#	191427
#	203797
#	218865
#
# Disc length: 3140 seconds
#
# Revision: 1
# Processed by: cddbd v1.5.2PL0 Copyright (c) Steve Scherf et al.
# Submitted via: CDex 1.51
#
DISCID=f20c4210
DTITLE=Various Artist - All Country Dance - D2of2
DYEAR=2007
DGENRE=Country
TTITLE0=Tracy Byrd - Watermelon Crawl
TTITLE1=Vince Gill - One More Last Chance
TTITLE2=David Lee Murphy - Party Crowd
TTITLE3=Billy Ray Cyrus - Achy Breaky Heart
TTITLE4=Terri Clark - Better Things To Do
TTITLE5=The Kentucky Headhunters - Dumas Walker
TTITLE6=Marty Stuart - Hillbilly Rock
TTITLE7=Mark Chestnutt - Gonna Get A Life
TTITLE8=George Jones - Billy B. Bad
TTITLE9=The Mavericks - All You Ever Do Is Bring Me Down
TTITLE10=John Conlee - Rose Colored Glasses
TTITLE11=Sammy Kershaw - Third Rate Romance
TTITLE12=Tanya Tucker - San Antonio Stroll
TTITLE13=Gary Allan - Her Man
TTITLE14=Rhett Akins - I Brake For Brunettes
TTITLE15=Vince Gill - Don't Let Our Love Start Slippin' Away
EXTD=YEAR: 2007
EXTT0=
EXTT1=
EXTT2=
EXTT3=
EXTT4=
EXTT5=
EXTT6=
EXTT7=
EXTT8=
EXTT9=
EXTT10=
EXTT11=
EXTT12=
EXTT13=
EXTT14=
EXTT15=
PLAYORDER=
